<?xml version="1.0" encoding="UTF-8"?>
<svg id="Layer_2" data-name="Layer 2" xmlns="http://www.w3.org/2000/svg" viewBox="0 0 59.01 57.99">
  <defs>
    <style>
      .cls-1, .cls-2, .cls-3, .cls-4, .cls-5, .cls-6, .cls-7, .cls-8 {
        stroke-miterlimit: 10;
      }

      .cls-1, .cls-2, .cls-3, .cls-4, .cls-5, .cls-6, .cls-7, .cls-8, .cls-9 {
        fill: none;
      }

      .cls-1, .cls-2, .cls-6, .cls-7 {
        stroke: #000;
      }

      .cls-1, .cls-4, .cls-6, .cls-9 {
        stroke-linecap: round;
      }

      .cls-1, .cls-7 {
        stroke-width: 1px;
      }

      .cls-10 {
        fill: #406d25;
      }

      .cls-3 {
        stroke: #406d25;
      }

      .cls-3, .cls-5, .cls-8 {
        stroke-width: .25px;
      }

      .cls-4, .cls-9 {
        stroke: #b87333;
      }

      .cls-11 {
        fill: #6ba31c;
      }

      .cls-12 {
        fill: #a06b32;
      }

      .cls-13 {
        fill: #eea642;
      }

      .cls-14 {
        fill: #87ceeb;
      }

      .cls-5 {
        stroke: #6ba31c;
      }

      .cls-15 {
        fill: #8fdbf2;
      }

      .cls-16 {
        fill: #7e5422;
      }

      .cls-17 {
        fill: #5a9216;
      }

      .cls-18 {
        fill: #457c28;
      }

      .cls-19 {
        fill: #341e10;
      }

      .cls-8 {
        stroke: #8fdbf2;
      }

      .cls-9 {
        stroke-linejoin: round;
      }

      .cls-20 {
        fill: #4a8c2a;
      }

      .cls-21 {
        fill: #a06d28;
      }
    </style>
  </defs>
  <g id="Layer_1-2" data-name="Layer 1">
    <g>
      <g>
        <path class="cls-21" d="M58.49,10.35s0,.08,0,.12v-.24s0,.08,0,.12Z"/>
        <path class="cls-16" d="M57.95,52.45v.24l-.67.34c.27-.18.49-.38.67-.58Z"/>
        <path class="cls-16" d="M57.95,43.18v9.27c-.18.2-.4.4-.67.58l-.35.18v-10.03c0-1.17.23-2.12.51-2.12s.51.95.51,2.12Z"/>
        <path class="cls-16" d="M57.9,36.41v.45h-.5c.19-.14.36-.3.5-.45Z"/>
        <path class="cls-16" d="M57.9,26.34v10.07c-.14.15-.31.31-.5.45h-.52v-10.52c0-1.22.23-2.22.51-2.22s.51,1,.51,2.22Z"/>
        <path class="cls-16" d="M57.82,15.18v5.22c-.2.22-.47.43-.78.64l-.06.03v-5.89c0-.96.19-1.74.42-1.74s.42.78.42,1.74Z"/>
        <path class="cls-16" d="M57.04,21.04c.31-.21.58-.42.78-.64v.19l-.78.45Z"/>
        <path class="cls-16" d="M56.12,21.56v.08l-1.09.53v-.12c.39-.16.76-.32,1.09-.49Z"/>
        <path class="cls-16" d="M56.12,16.21v5.35c-.33.17-.7.33-1.09.49v-5.5c0-.91-.22-1.66-.49-1.66-.07,0-.13.05-.19.13.19-.33.45-.54.74-.54.57,0,1.03.78,1.03,1.73Z"/>
        <path class="cls-16" d="M55.88,53.84v.07l-.29.07c.1-.05.2-.09.29-.14Z"/>
        <path class="cls-16" d="M55.83,37.78v.4h-.94c.34-.13.65-.26.94-.4Z"/>
        <path class="cls-13" d="M54.56,54.2l1.03-.22c-.32.14-.66.27-1.03.41v-.19Z"/>
        <path class="cls-16" d="M55.88,44.44v9.4c-.09.05-.19.09-.29.14l-1.03.22v-9.35c0-1.11-.27-2.03-.6-2.03-.09,0-.18.07-.26.2.23-.43.56-.7.93-.7.68,0,1.25.96,1.25,2.12Z"/>
        <path class="cls-16" d="M54.58,25.45c.68,0,1.25.99,1.25,2.21v10.12c-.29.14-.6.27-.94.4h-.38v-10.08c0-1.17-.27-2.13-.6-2.13-.1,0-.2.09-.27.25.22-.47.56-.77.94-.77Z"/>
        <polygon class="cls-19" points="55.03 22.17 55.03 22.38 54.64 22.37 55.03 22.17"/>
        <path class="cls-19" d="M55.03,22.05v.12l-.39.2h-.43c.29-.11.56-.21.82-.32Z"/>
        <path class="cls-19" d="M54.06,22.35v-6.13h0c0-.22.04-.42.07-.6.02-.07.03-.13.05-.19.05-.18.1-.32.17-.41.06-.08.12-.13.19-.13.27,0,.49.75.49,1.66v5.5c-.26.11-.53.21-.82.31h-.15Z"/>
        <path class="cls-16" d="M54.62,22.37l-.56.28v-.24c.06-.02.1-.03.15-.05h.41Z"/>
        <path class="cls-19" d="M54.56,54.39v.08h-.22c.08-.03.15-.05.22-.08Z"/>
        <path class="cls-19" d="M54.56,54.2v.19c-.07.03-.14.05-.22.08h-.97l1.19-.27Z"/>
        <path class="cls-19" d="M53.37,54.47v-10.02h0c.03-.38.08-.71.15-.97.04-.16.09-.3.15-.4,0-.02.01-.04.03-.06.08-.13.17-.2.26-.2.33,0,.6.92.6,2.03v9.35l-1.19.27Z"/>
        <path class="cls-19" d="M53.32,38.18v-10.51h0c.03-.42.09-.79.17-1.07.04-.15.09-.28.15-.38.07-.16.17-.25.27-.25.33,0,.6.96.6,2.13v10.08h-1.19Z"/>
        <path class="cls-21" d="M53.79,12.18c2.76-.91,4.46-1.98,4.69-3.13v1.42c-.1,1.21-1.82,2.33-4.7,3.28l-.28-.05.25-1.44.04-.08Z"/>
        <path class="cls-13" d="M54.18,15.43c-.02.06-.03.12-.05.19.01-.07.02-.13.05-.19Z"/>
        <path class="cls-13" d="M54.06,16.21c0-.21.02-.41.07-.59-.03.18-.06.38-.07.59Z"/>
        <path class="cls-16" d="M54.21,22.36c-.05.02-.09.03-.15.05v-.06h.15Z"/>
        <path class="cls-13" d="M57.4,13.44c-.23,0-.42.78-.42,1.74v5.89c-.26.17-.54.34-.86.49v-5.35c0-.95-.46-1.73-1.03-1.73-.29,0-.55.21-.74.54-.07.09-.12.23-.17.41-.03.06-.04.12-.05.19-.05.18-.07.38-.07.59h0c-.01.11-.01.23-.01.34v5.8h.01v.06c-.66.23-1.38.44-2.17.65l-.02-.06.42-2.38,1.09-6.23.12-.69.28.05c2.88-.95,4.6-2.07,4.7-3.28v8.65h-.04c0,.44-.21.87-.62,1.28v-5.22c0-.96-.19-1.74-.42-1.74Z"/>
        <path class="cls-13" d="M54.06,16.22v6.13h-.01v-5.8c0-.11,0-.23.01-.33Z"/>
        <path class="cls-13" d="M53.7,43.02s-.03.04-.03.06l.03-.06Z"/>
        <path class="cls-12" d="M58.48,9.05c-.23,1.15-1.93,2.22-4.69,3.13l-.04.08-.25,1.44-.12.69-.15-.03c-2.78-4.89-7.02-8.85-12.14-11.26l.02-.04c10.24.96,17.4,3.15,17.4,5.71,0,.09-.01.18-.03.28Z"/>
        <path class="cls-16" d="M53.52,43.48c-.07.26-.12.59-.15.96,0-.34.05-.67.15-.96Z"/>
        <path class="cls-13" d="M53.32,27.66c0-.38.06-.75.17-1.06-.08.28-.14.65-.17,1.06Z"/>
        <path class="cls-13" d="M53.37,44.45v10.02h-.01v-9.62c0-.14,0-.27.01-.4Z"/>
        <path class="cls-13" d="M58.48,38.12v13.14c0,.41-.18.8-.53,1.19v-9.27c0-1.17-.23-2.12-.51-2.12s-.51.95-.51,2.12v10.03l.35-.18c-.38.29-.85.56-1.4.81v-9.4c0-1.16-.57-2.12-1.25-2.12-.37,0-.7.27-.93.7l-.03.06c-.06.1-.11.24-.15.4-.1.29-.15.62-.15.96h0c-.01.14-.01.27-.01.41v9.62h.98c-1.53.55-3.45,1.05-5.67,1.46v-.04l2.33-.47v-9.03c0-1.16-1.12-2.11-2.48-2.11-.72,0-1.36.26-1.81.69-.12.09-.23.22-.32.37-.19.27-.31.58-.33.92-.04.16-.05.32-.05.49v9.64c-.84.12-1.72.24-2.63.34v-9.57c0-1.17-1.67-2.12-3.71-2.12-.43,0-.85.04-1.24.13-1.26.08-2.28.82-2.46,1.77-.03.1-.04.2-.04.31v9.94h2.53c-2.5.18-5.15.28-7.9.3h0s.67-2.4.67-2.4l.75-2.7.93-3.33.03-.11,1.33-4.76.26-.92c13.52-.56,23.75-3.03,23.95-6.02v.87Z"/>
        <path class="cls-13" d="M53.32,27.67v10.51h1.19s-1.2.01-1.2.01v-10.09c0-.14,0-.29,0-.43Z"/>
        <path class="cls-16" d="M50.95,39.37v.06l-.82.13c.28-.06.55-.12.82-.19Z"/>
        <path class="cls-13" d="M48.62,39.81l1.3-.21c-.42.09-.85.18-1.3.26v-.05Z"/>
        <path class="cls-14" d="M49.81,18.26c.87.78,1.66,1.56,2.36,2.34l.12.02-.42,2.38.02.06h0c-2,.53-4.39.98-7.08,1.34l-.76-1.03c3.31-1.54,5.1-4.1,5.72-5.13h.01l.03.02Z"/>
        <path class="cls-21" d="M58.48,35.18v2.07c-.2,2.99-10.43,5.46-23.95,6.02l.55-1.96h-.01s.01-.01.01-.01c2.23-.09,4.38-.24,6.39-.44,1.85-.18,3.59-.4,5.2-.66h1.95v-.34c.45-.08.88-.17,1.3-.26l.21-.04.82-.13v-.06c1.52-.36,2.84-.76,3.94-1.19h.94v-.4c.63-.29,1.16-.6,1.57-.92h.5v-.45c.38-.4.57-.81.57-1.23h.01Z"/>
        <path class="cls-19" d="M48.67,55.93v.46h-2.47l.73-.15c.6-.1,1.18-.2,1.74-.31Z"/>
        <path class="cls-19" d="M48.67,55.89v.04c-.56.11-1.14.21-1.74.31l1.74-.35Z"/>
        <path class="cls-19" d="M48.67,46.75v9.14l-1.74.35c-.29.05-.58.1-.88.14v-9.99s0-.09.01-.13c.05-.36.17-.67.33-.92.09-.15.2-.28.32-.37.19-.16.41-.25.63-.25.74,0,1.33.91,1.33,2.03Z"/>
        <path class="cls-19" d="M48.62,39.86v.34h-1.95c.67-.1,1.32-.22,1.95-.34Z"/>
        <path class="cls-19" d="M48.62,39.81v.05c-.63.12-1.28.24-1.95.34h-.48l2.43-.39Z"/>
        <path class="cls-19" d="M48.62,30.09v9.72l-2.43.39h-.19v-10.49s0-.09.01-.14c.05-.38.18-.72.34-.99.04-.05.07-.09.09-.13.23-.31.53-.49.85-.49.74,0,1.33.96,1.33,2.13Z"/>
        <path class="cls-16" d="M48.67,46.75c0-1.12-.59-2.03-1.33-2.03-.22,0-.44.09-.63.25.45-.43,1.09-.69,1.81-.69,1.36,0,2.48.95,2.48,2.11v9.03l-2.33.47v-9.14Z"/>
        <path class="cls-16" d="M48.62,30.09c0-1.17-.59-2.13-1.33-2.13-.32,0-.62.18-.85.49.45-.58,1.19-.96,2.03-.96,1.36,0,2.48,1,2.48,2.22v9.66c-.27.07-.54.13-.82.19l-.21.04-1.3.21v-9.72Z"/>
        <path class="cls-19" d="M46.93,56.24l-.73.15h-.15c.3-.05.59-.1.88-.15Z"/>
        <path class="cls-13" d="M46.35,28.58c-.16.27-.29.61-.34.99.02-.36.14-.7.34-.99Z"/>
        <polygon class="cls-19" points="46.2 56.39 46.05 56.42 46.05 56.39 46.2 56.39"/>
        <polygon class="cls-16" points="46.19 40.2 46 40.23 46 40.2 46.19 40.2"/>
        <path class="cls-13" d="M46.39,45.34c-.16.25-.28.56-.33.92.02-.34.14-.65.33-.92Z"/>
        <path class="cls-19" d="M46.06,46.26s-.01.09-.01.13v9.99s-.03,0-.04.01v-9.64c0-.17.01-.33.05-.49Z"/>
        <path class="cls-19" d="M46.05,56.38h0s-.04.01-.04.01c.01-.01.03-.01.04-.01Z"/>
        <path class="cls-19" d="M46.01,29.57s-.01.09-.01.14v10.49h-.04v-10.11c0-.18.01-.36.05-.52Z"/>
        <path class="cls-13" d="M57.9,36.41v-10.07c0-1.22-.23-2.22-.51-2.22s-.51,1-.51,2.22v10.52h.52c-.41.32-.94.63-1.57.92v-10.12c0-1.22-.57-2.21-1.25-2.21-.38,0-.72.3-.94.77-.06.1-.11.23-.15.38-.11.31-.17.68-.17,1.06h0c0,.15,0,.3,0,.44v10.09h1.2s.38-.01.38-.01c-1.1.43-2.42.83-3.94,1.19v-9.66c0-1.22-1.12-2.22-2.48-2.22-.84,0-1.58.38-2.03.96-.02.04-.05.08-.09.13-.2.29-.32.63-.34.99-.04.16-.05.34-.05.52v10.11h.04v.03l.19-.03h.48c-1.61.26-3.35.48-5.2.66l-.03-.28h0s.23-1.11.23-1.11l2.06-9.92.68-3.27.41.09.08-.39c7.74-1.04,13.03-2.85,13.58-4.93v14.13h-.01c0,.42-.19.83-.57,1.23Z"/>
        <path class="cls-21" d="M56.98,21.07l.06-.03.78-.45v-.19c.41-.41.62-.84.62-1.28h.04v1.93c-.55,2.08-5.84,3.89-13.58,4.93l-.08.39-.41-.09.38-1.82.02-.05h0c2.69-.37,5.08-.82,7.08-1.34h0c.79-.22,1.51-.43,2.17-.66v.24l.56-.28h.41s0-.2,0-.2l1.09-.53v-.08c.32-.15.6-.32.86-.49Z"/>
        <path class="cls-16" d="M43.38,56.73v.45h-1.97v-.23c.67-.07,1.33-.14,1.97-.22Z"/>
        <path class="cls-19" d="M41.41,57.18h0s-2.95.01-2.95.01c.05,0,.1,0,.14-.01h2.81Z"/>
        <path class="cls-19" d="M41.41,56.95v.23h-2.81c.96-.07,1.9-.14,2.81-.23Z"/>
        <path class="cls-19" d="M41.41,47.25v9.7c-.91.09-1.85.16-2.81.23h-2.65v-10.02c0-.07.01-.14.02-.22.15-.82,1.13-1.51,2.46-1.77.08-.01.16-.01.24-.01,1.5,0,2.74.94,2.74,2.09Z"/>
        <path class="cls-16" d="M41.41,47.25c0-1.15-1.24-2.09-2.74-2.09-.08,0-.16,0-.24.01.39-.09.81-.13,1.24-.13,2.04,0,3.71.95,3.71,2.12v9.57c-.64.08-1.3.15-1.97.22v-9.7Z"/>
        <path class="cls-19" d="M38.43,45.17c-1.33.26-2.31.95-2.46,1.77.18-.95,1.2-1.69,2.46-1.77Z"/>
        <path class="cls-19" d="M35.95,47.16v10.02h2.65s-.09.01-.14.01h-2.53v-9.94c0-.11.01-.21.04-.31-.01.08-.02.15-.02.22Z"/>
        <path class="cls-10" d="M32.94,48.95l-.03.11-.19-.19c.07.03.15.05.22.08Z"/>
        <path class="cls-10" d="M32.91,49.06l-.93,3.33-1.9-1.9-.05-.04c.2-.22.33-.52.33-.85,0-.51-.32-.95-.76-1.14l.28-.68c.84.35,1.79.72,2.84,1.09l.19.19Z"/>
        <path class="cls-11" d="M35.08,9.98c-1.23,1.06-2.26,2.11-3.12,3.09.03-.43.29-3.06,2.61-4.83,2.02-1.55,4.24-1.39,4.74-1.34-1.28.79-2.73,1.79-4.23,3.08Z"/>
        <path class="cls-17" d="M32.07,22.92c2.07-1.08,4.64-2.21,7.67-3.13,3.91-1.19,7.43-1.66,10.2-1.83-.04.07-.1.17-.16.28h-.01c-.62,1.03-2.41,3.59-5.72,5.13-.53.25-1.09.47-1.69.65-5.06,1.55-9.24-.53-10.2-1.05-.03-.02-.06-.04-.09-.05Z"/>
        <path class="cls-11" d="M39.74,19.79c-3.03.92-5.6,2.05-7.67,3.13.4-.71,2.95-5.14,8.46-6.41,3.08-.71,5.73-.11,7.46.54.97.36,1.65.73,1.95.91-2.77.17-6.29.64-10.2,1.83Z"/>
        <path class="cls-17" d="M31.96,13.07c.86-.98,1.89-2.03,3.12-3.09,1.5-1.29,2.95-2.29,4.23-3.08-.05.51-.32,2.76-2.27,4.48-.04.03-.07.06-.11.09-2.1,1.79-4.54,1.63-4.97,1.6Z"/>
        <path class="cls-15" d="M34.57,8.24c-2.32,1.77-2.58,4.4-2.61,4.83h-.22s0-.18,0-.18c.09-.5.45-2.69-.91-4.85-1.56-2.47-4.16-2.96-4.57-3.03-.08.44-.46,2.93,1.22,5.21.07.1.14.19.23.28l-.18.14c-1.7.08-3.19.26-4.39.42-1.34.17-2.63.41-3.86.69l-.05.12c-3.43-1.84-6.76-1.42-7.58-1.29.07.47.29,1.77,1,3.33-4.12,1.74-7.21,3.85-9.11,5.31h-.01c.38-1.14.83-2.24,1.35-3.31h.01C9.3,6.79,18.64.5,29.46.5c4.16,0,8.1.93,11.63,2.6,5.12,2.41,9.36,6.37,12.14,11.26l.15.03-1.09,6.23-.12-.02c-.7-.78-1.49-1.56-2.36-2.34l-.03-.02c.06-.11.12-.21.16-.28-.3-.18-.98-.55-1.95-.91l.08-.22c-1.43-1.1-3.06-2.15-4.9-3.07-2.07-1.03-4.09-1.75-6.04-2.24l-.2-.05s.07-.06.11-.09c1.95-1.72,2.22-3.97,2.27-4.48-.5-.05-2.72-.21-4.74,1.34Z"/>
        <path class="cls-11" d="M29.38,8.58c-1.07-1.53-2.19-2.7-3.13-3.57.41.07,3.01.56,4.57,3.03,1.36,2.16,1,4.35.91,4.85-.49-1.22-1.23-2.73-2.35-4.31Z"/>
        <circle class="cls-18" cx="29.13" cy="45.33" r="1.24"/>
        <path class="cls-10" d="M30.36,49.6c0,.33-.13.63-.33.85-.23.24-.56.39-.91.39-.69,0-1.24-.55-1.24-1.24s.55-1.24,1.24-1.24c.17,0,.33.04.48.1.44.19.76.63.76,1.14Z"/>
        <path class="cls-14" d="M29.26,25.33c-.38-2.1-.9-2.82-1.03-4.25-.16-1.79.32-4.46,3.51-8h.22c.43.02,2.87.18,4.97-1.61l.2.05c1.95.49,3.97,1.21,6.04,2.24,1.84.92,3.47,1.97,4.9,3.07l-.08.22c-1.73-.65-4.38-1.25-7.46-.54-5.51,1.27-8.06,5.7-8.46,6.41.03.01.06.03.09.05-.47.37-1.1.95-1.63,1.81-.87,1.42-.97,2.81-.97,3.5h-.01c0-.69-.06-1.43-.17-2.21-.03-.24-.07-.49-.12-.74Z"/>
        <path class="cls-14" d="M44.79,24.46l-.38,1.82-.68,3.27c-6.78-.63-12.03,1.3-14.47,2.38.17-.94.32-2.18.29-3.65h.01c0-.69.1-2.08.97-3.5.53-.86,1.16-1.44,1.63-1.81.96.52,5.14,2.6,10.2,1.05.6-.18,1.16-.4,1.69-.65l.76,1.03h0s-.02.06-.02.06Z"/>
        <circle class="cls-18" cx="29.14" cy="41.06" r="1.24"/>
        <path class="cls-10" d="M24.36,45.02c.87.55,2.39,1.42,4.95,2.52.18.08.37.16.57.24l-.28.68c-.15-.06-.31-.1-.48-.1-.69,0-1.24.56-1.24,1.24s.55,1.24,1.24,1.24c.35,0,.68-.15.91-.39l.05.04,1.9,1.9-.75,2.7h-.02c-.58.02-1.16.04-1.75.04-3.73,0-7.28-.75-10.52-2.1l.06-.14v-3.93l.02-.1,3.26-3.26c.48.49,1.27.49,1.75,0,.17-.16.28-.37.33-.58Z"/>
        <path class="cls-20" d="M29.26,31.93c2.44-1.08,7.69-3.01,14.47-2.38l-2.06,9.92h-.03c-3.87-1.34-6.77-3.01-8.92-4.52-1.39-.98-2.54-1.94-3.58-2.89l.12-.13Z"/>
        <path class="cls-17" d="M26.25,5.01c.94.87,2.06,2.04,3.13,3.57,1.12,1.58,1.86,3.09,2.35,4.31-.48-.1-2.52-.53-4.03-2.39-.09-.09-.16-.18-.23-.28-1.68-2.28-1.3-4.77-1.22-5.21Z"/>
        <path class="cls-14" d="M25.46,20.98c.56.32,1.26.81,1.94,1.53,1.23,1.3,1.75,2.71,1.98,3.56.11.78.17,1.52.17,2.21.03,1.47-.12,2.71-.29,3.65l-.12.13c-3.42-3.12-5.47-5.94-10.01-7.7-5.39-2.1-10.85-1.36-14.93-.21l-.12.03c-.06-.28-.12-.57-.19-.85-.09-.45-.19-.89-.29-1.34l-.05-.1c-.24-.11-.47-.21-.69-.32.18-.8.41-1.58.66-2.35h.01c1.9-1.46,4.99-3.57,9.11-5.31.66,1.44,1.74,3.11,3.52,4.52,4,3.18,8.51,2.66,9.3,2.55Z"/>
        <path class="cls-17" d="M18.76,15.02c2.75,2.04,4.96,4.12,6.7,5.96-.79.11-5.3.63-9.3-2.55-1.78-1.41-2.86-3.08-3.52-4.52-.71-1.56-.93-2.86-1-3.33,2.13,1.1,4.57,2.54,7.12,4.44Z"/>
        <path class="cls-11" d="M25.46,20.98c-1.74-1.84-3.95-3.92-6.7-5.96-2.55-1.9-4.99-3.34-7.12-4.44.82-.13,4.15-.55,7.58,1.29.36.2.72.42,1.09.66,4.35,2.98,5.05,7.7,5.15,8.45Z"/>
        <path class="cls-18" d="M24.03,43.85c.32.32.43.77.33,1.17-.23-.14-.41-.26-.55-.36-.49-.34-.93-.67-1.33-.98.48-.3,1.13-.25,1.55.17Z"/>
        <path class="cls-18" d="M24.29,38.73c.01.69-.55,1.24-1.23,1.25-.69,0-1.24-.56-1.24-1.24,0-.68.55-1.24,1.23-1.24.69-.01,1.24.55,1.24,1.23Z"/>
        <path class="cls-10" d="M24.03,45.6c-.48.49-1.27.49-1.75,0-.48-.48-.48-1.27,0-1.75.06-.06.13-.12.2-.17.4.31.84.64,1.33.98.14.1.32.22.55.36-.05.21-.16.42-.33.58Z"/>
        <path class="cls-18" d="M20.93,31.36c.68,0,1.24.56,1.24,1.24s-.55,1.24-1.24,1.24c-.68.01-1.24-.55-1.24-1.23s.55-1.24,1.24-1.25Z"/>
        <path class="cls-18" d="M20.9,40.87c.43.42.48,1.09.15,1.57-.66-.61-1.2-1.2-1.69-1.74.48-.31,1.13-.25,1.54.17Z"/>
        <path class="cls-10" d="M20.9,42.62s.1-.11.15-.17c.42.39.89.8,1.43,1.23-.07.05-.14.11-.2.17-.48.48-.48,1.27,0,1.75l-3.26,3.26-.02.1v3.93l-.06.14c-.44-.18-.88-.38-1.31-.58h-.01s-1.57-6.71-1.57-6.71l3.05-3.05.05-.07c.48.49,1.27.49,1.75,0Z"/>
        <path class="cls-14" d="M27.4,22.51c-.68-.72-1.38-1.21-1.94-1.53-.1-.75-.8-5.47-5.15-8.45-.37-.24-.73-.46-1.09-.66l.05-.12c1.23-.28,2.52-.52,3.86-.69,1.2-.16,2.69-.34,4.39-.42l.18-.14c1.51,1.86,3.55,2.29,4.03,2.39v.19c-3.18,3.54-3.66,6.21-3.5,8,.13,1.43.65,2.15,1.03,4.25.05.25.09.5.12.74-.23-.85-.75-2.26-1.98-3.56Z"/>
        <path class="cls-10" d="M19.36,40.7c.49.54,1.03,1.13,1.69,1.74h0c-.05.07-.1.13-.15.18-.48.49-1.27.49-1.75,0-.48-.48-.48-1.27,0-1.75.07-.07.14-.13.21-.17Z"/>
        <path class="cls-10" d="M18.02,39.29c.46.43.88.91,1.34,1.41-.07.04-.14.1-.21.17-.48.48-.48,1.27,0,1.75l-.05.07-3.05,3.05-.77-3.23-.42-1.78,1.27-1.27c.48.48,1.27.48,1.75,0,.05-.05.1-.11.14-.17Z"/>
        <path class="cls-10" d="M18.02,39.29c-.04.06-.09.12-.14.17-.48.48-1.27.48-1.75,0-.45-.45-.48-1.19-.07-1.67.41.24.77.49,1.1.74.31.24.59.49.86.76Z"/>
        <path class="cls-18" d="M17.16,38.53c-.33-.25-.69-.5-1.1-.74.02-.03.04-.05.07-.08.48-.49,1.27-.49,1.75,0,.44.43.48,1.1.14,1.58-.27-.27-.55-.52-.86-.76Z"/>
        <path class="cls-18" d="M16.66,31.36c.68,0,1.24.56,1.24,1.24s-.55,1.24-1.24,1.24c-.68.01-1.24-.55-1.24-1.23s.55-1.24,1.24-1.25Z"/>
        <path class="cls-18" d="M12.39,31.36c.68,0,1.24.56,1.24,1.24s-.55,1.24-1.24,1.24c-.68.01-1.24-.55-1.24-1.23s.55-1.24,1.24-1.25Z"/>
        <path class="cls-19" d="M12.98,46.37v9.65h-.03v-10.01c.02.11.03.24.03.36Z"/>
        <polygon class="cls-19" points="12.95 56.02 12.95 56.04 12.78 56.02 12.95 56.02"/>
        <path class="cls-19" d="M12.95,46.01v10.01h-.17l-2.46-.29v-9.36c0-1.11.6-2.03,1.33-2.03.28,0,.53.13.74.35.04.04.08.09.13.14.21.28.37.68.43,1.13,0,.01.01.03,0,.05Z"/>
        <path class="cls-19" d="M12.78,56.02h-2.01c-.15-.03-.31-.05-.45-.08v-.21l2.46.29Z"/>
        <path class="cls-16" d="M12.95,45.96c-.06-.45-.22-.85-.43-1.13.26.32.42.71.43,1.13Z"/>
        <path class="cls-19" d="M10.77,56.02h-.45v-.08c.14.03.3.05.45.08Z"/>
        <path class="cls-16" d="M10.47,43.9c.78,0,1.47.31,1.92.79-.21-.22-.46-.35-.74-.35-.73,0-1.33.92-1.33,2.03v9.36l-2.29-.28h-.04v-9.44c0-1.16,1.12-2.11,2.48-2.11Z"/>
        <path class="cls-13" d="M10.32,55.73v.21c-.81-.15-1.57-.31-2.29-.49l2.29.28Z"/>
        <path class="cls-18" d="M8.12,31.36c.68,0,1.24.56,1.24,1.24s-.55,1.24-1.24,1.24c-.68.01-1.24-.55-1.24-1.23s.55-1.24,1.24-1.25Z"/>
        <path class="cls-10" d="M7.34,39.09c-.2-.9-.39-1.8-.59-2.7l.13-.03c4.4-.45,7.26.33,9.18,1.43-.41.48-.38,1.22.07,1.67l-1.27,1.27-.04-.17c-2.85-.36-5.39-.82-7.51-1.36l.03-.11Z"/>
        <path class="cls-18" d="M29.14,42.3c.69,0,1.24-.55,1.24-1.24s-.55-1.24-1.24-1.24-1.24.56-1.24,1.24.56,1.24,1.24,1.24ZM27.89,45.33c0,.69.56,1.24,1.24,1.24s1.24-.55,1.24-1.24-.56-1.24-1.24-1.24-1.24.56-1.24,1.24ZM22.17,32.6c0-.68-.56-1.24-1.24-1.24-.69,0-1.24.56-1.24,1.25s.56,1.24,1.24,1.23c.69,0,1.24-.56,1.24-1.24ZM24.29,38.73c0-.68-.55-1.24-1.24-1.23-.68,0-1.24.56-1.23,1.24,0,.68.55,1.24,1.24,1.24.68-.01,1.24-.56,1.23-1.25ZM6.88,32.61c0,.68.56,1.24,1.24,1.23.69,0,1.24-.56,1.24-1.24s-.56-1.24-1.24-1.24c-.69,0-1.24.56-1.24,1.25ZM16.66,31.36c-.69,0-1.24.56-1.24,1.25s.56,1.24,1.24,1.23c.69,0,1.24-.56,1.24-1.24s-.56-1.24-1.24-1.24ZM13.63,32.6c0-.68-.56-1.24-1.24-1.24-.69,0-1.24.56-1.24,1.25s.56,1.24,1.24,1.23c.69,0,1.24-.56,1.24-1.24ZM4.82,27.59c-.24-1.14-.49-2.27-.74-3.41l.12-.03c4.08-1.15,9.54-1.89,14.93.21,4.54,1.76,6.59,4.58,10.01,7.7,1.04.95,2.19,1.91,3.58,2.89,2.15,1.51,5.05,3.18,8.92,4.51h.03s-.23,1.11-.23,1.11h0s.03.29.03.29c-2.01.2-4.16.35-6.39.44h-.01s.01.01.01.01l-.55,1.96-.26.92-1.33,4.76c-.07-.03-.15-.05-.22-.08-1.05-.37-2-.74-2.84-1.09-.2-.08-.39-.16-.57-.24-2.56-1.1-4.08-1.97-4.95-2.52.1-.4-.01-.85-.33-1.17-.42-.42-1.07-.47-1.55-.17-.54-.43-1.01-.84-1.43-1.23h0c.33-.49.28-1.16-.15-1.58-.41-.42-1.06-.48-1.54-.17-.46-.5-.88-.98-1.34-1.41.34-.48.3-1.15-.14-1.58-.48-.49-1.27-.49-1.75,0-.03.03-.05.05-.07.08-1.92-1.1-4.78-1.88-9.18-1.43l-.13.03c-.28-1.29-.57-2.58-.85-3.87-.36-1.64-.72-3.29-1.08-4.93Z"/>
        <path class="cls-19" d="M5.62,54.09v-9.99c.01.13.01.27.01.41v9.81h-1.19v-.23h1.18Z"/>
        <path class="cls-16" d="M5.46,43.06c.11.3.16.64.16,1-.03-.38-.09-.73-.16-1Z"/>
        <path class="cls-19" d="M5.62,44.1v9.99h-1.18v-9.58c0-1.13.27-2.06.6-2.06.08,0,.16.06.23.16.02.03.04.06.05.09.03.06.06.12.08.18.03.06.05.12.06.18.07.27.13.62.16,1v.04Z"/>
        <path class="cls-19" d="M5.46,43.06c-.01-.06-.03-.12-.06-.18l.06.18Z"/>
        <path class="cls-19" d="M5.4,42.88c-.02-.06-.05-.12-.08-.18.03.05.06.11.08.18Z"/>
        <path class="cls-12" d="M4.78,15.86l.09.05c-.52,1.07-.97,2.17-1.35,3.31-.25.77-.48,1.55-.66,2.35-1.07-.54-1.8-1.11-2.13-1.71-.13-.22-.19-.44-.21-.67v-.08c0-1.19,1.56-2.31,4.26-3.25Z"/>
        <path class="cls-16" d="M5.04,42.45c-.33,0-.6.93-.6,2.06v9.58h-.8c-.18-.08-.36-.15-.52-.23v-9.8c0-1.16.56-2.11,1.25-2.11.36,0,.68.25.9.66-.07-.1-.15-.16-.23-.16Z"/>
        <path class="cls-16" d="M3.64,54.09h-.52v-.23c.16.08.34.15.52.23Z"/>
        <path class="cls-21" d="M3.81,23.35c-2.1-.84-3.28-1.78-3.28-2.77,0-.25.07-.48.2-.72.33.6,1.06,1.17,2.13,1.71.22.11.45.21.69.32l.05.1c.1.45.2.89.29,1.34l-.08.02Z"/>
        <path class="cls-16" d="M1.1,26.01c0-1.25.23-2.26.51-2.26s.51,1.01.51,2.26v10.75h-.69c-.12-.1-.23-.2-.33-.31v-10.44Z"/>
        <path class="cls-16" d="M1.05,42.8c0-1.16.23-2.11.51-2.11s.51.95.51,2.11v10.03h-.65c-.14-.11-.26-.23-.37-.35v-9.68Z"/>
        <path class="cls-16" d="M1.43,36.76h-.33v-.31c.1.11.21.21.33.31Z"/>
        <path class="cls-16" d="M1.42,52.83h-.37v-.35c.11.12.23.24.37.35Z"/>
        <path class="cls-13" d="M3.89,23.33c.07.28.13.57.19.85.25,1.14.5,2.27.74,3.41.36,1.64.72,3.29,1.08,4.93.28,1.29.57,2.58.85,3.87.2.9.39,1.8.59,2.7l-.03.11c-2.74-.7-4.78-1.53-5.88-2.44h.69v-10.75c0-1.25-.23-2.26-.51-2.26s-.51,1.01-.51,2.26v10.44c-.33-.33-.53-.68-.59-1.04v-16.22h.01c.02.23.08.45.21.67-.13.24-.2.47-.2.72,0,.99,1.18,1.93,3.28,2.77l.08-.02Z"/>
        <path class="cls-13" d="M7.99,55.45c-1.71-.41-3.18-.87-4.35-1.36h.8v.23h1.19v-9.81c0-.14,0-.28-.01-.41v-.04c0-.36-.05-.7-.16-1l-.06-.18c-.02-.07-.05-.13-.08-.18,0-.03-.03-.06-.05-.09-.22-.41-.54-.66-.9-.66-.69,0-1.25.95-1.25,2.11v9.8c-.7-.33-1.27-.68-1.7-1.03h.65v-10.03c0-1.16-.23-2.11-.51-2.11s-.51.95-.51,2.11v9.68c-.34-.37-.53-.76-.54-1.16v-13.61c.87,2.06,6.53,3.83,14.64,4.83l.13-.03.77,3.23,1.57,6.7h.01s1.08,4.61,1.08,4.61c-2.91-.25-5.59-.6-7.94-1.03h2.01l.17.02v-.02h.03v-9.65c0-.12-.01-.25-.03-.36.01-.02,0-.04,0-.05-.01-.42-.17-.81-.43-1.13-.05-.05-.09-.1-.13-.14-.45-.48-1.14-.79-1.92-.79-1.36,0-2.48.95-2.48,2.11v9.44Z"/>
        <path class="cls-21" d="M14.82,40.56l.04.17.42,1.78-.13.03c-8.11-1-13.77-2.77-14.64-4.83v-2.3c.06.36.26.71.59,1.04v.31h.33c1.1.91,3.14,1.74,5.88,2.44,2.12.54,4.66,1,7.51,1.36Z"/>
      </g>
      <g>
        <path class="cls-8" d="M49.81,18.26c.87.78,1.66,1.56,2.36,2.34"/>
        <path class="cls-8" d="M37.13,11.52c1.95.49,3.97,1.21,6.04,2.24,1.84.92,3.47,1.97,4.9,3.07"/>
        <path class="cls-8" d="M19.27,11.75c1.23-.28,2.52-.52,3.86-.69,1.2-.16,2.69-.34,4.39-.42"/>
        <path class="cls-8" d="M3.53,19.22c1.9-1.46,4.99-3.57,9.11-5.31"/>
        <path class="cls-2" d="M29.26,31.93c2.44-1.08,7.69-3.01,14.47-2.38"/>
        <path class="cls-4" d="M20.93,31.36c.68,0,1.24.56,1.24,1.24s-.55,1.24-1.24,1.24c-.68.01-1.24-.55-1.24-1.23s.55-1.24,1.24-1.25Z"/>
        <path class="cls-1" d="M31.74,13.08c-3.19,3.54-3.67,6.21-3.51,8,.13,1.43.65,2.15,1.03,4.25.05.25.09.5.12.74.11.78.17,1.52.17,2.21.03,1.47-.12,2.71-.29,3.65"/>
        <path class="cls-7" d="M25.46,20.98c.56.32,1.26.81,1.94,1.53,1.23,1.3,1.75,2.71,1.98,3.56.01.05.03.1.04.15"/>
        <path class="cls-7" d="M32.4,22.8c-.07.05-.15.11-.24.17-.47.37-1.1.95-1.63,1.81-.87,1.42-.97,2.81-.97,3.5v.11"/>
        <path class="cls-5" d="M11.64,10.58c2.13,1.1,4.57,2.54,7.12,4.44,2.75,2.04,4.96,4.12,6.7,5.96"/>
        <path class="cls-5" d="M49.94,17.96c-2.77.17-6.29.64-10.2,1.83-3.03.92-5.6,2.05-7.67,3.13"/>
        <path class="cls-3" d="M21.05,42.45c.42.39.89.8,1.43,1.23.4.31.84.64,1.33.98.14.1.32.22.55.36.87.55,2.39,1.42,4.95,2.52.18.08.37.16.57.24.84.35,1.79.72,2.84,1.09.07.03.15.05.22.08.01,0,.02,0,.03,0"/>
        <path class="cls-3" d="M6.88,36.36c4.4-.45,7.26.33,9.18,1.43.41.24.77.49,1.1.74.31.24.59.49.86.76.46.43.88.91,1.34,1.41.49.54,1.03,1.13,1.69,1.74"/>
        <path class="cls-7" d="M25.46,20.98c-.1-.75-.8-5.47-5.15-8.45-.37-.24-.73-.46-1.09-.66-3.43-1.84-6.76-1.42-7.58-1.29.07.47.29,1.77,1,3.33.66,1.44,1.74,3.11,3.52,4.52,4,3.18,8.51,2.66,9.3,2.55Z"/>
        <path class="cls-7" d="M32.07,22.92c.4-.71,2.95-5.14,8.46-6.41,3.08-.71,5.73-.11,7.46.54.97.36,1.65.73,1.95.91-.04.07-.1.17-.16.28h-.01c-.62,1.03-2.41,3.59-5.72,5.13-.53.25-1.09.47-1.69.65-5.06,1.55-9.24-.53-10.2-1.05-.03-.02-.06-.04-.09-.05Z"/>
        <path class="cls-5" d="M39.31,6.9c-1.28.79-2.73,1.79-4.23,3.08-1.23,1.06-2.26,2.11-3.12,3.09"/>
        <path class="cls-5" d="M26.25,5.01c.94.87,2.06,2.04,3.13,3.57,1.12,1.58,1.86,3.09,2.35,4.31"/>
        <path class="cls-2" d="M31.96,13.07c.03-.43.29-3.06,2.61-4.83,2.02-1.55,4.24-1.39,4.74-1.34-.05.51-.32,2.76-2.27,4.48-.04.03-.07.06-.11.09-2.1,1.79-4.54,1.63-4.97,1.6Z"/>
        <path class="cls-2" d="M26.25,5.01c.41.07,3.01.56,4.57,3.03,1.36,2.16,1,4.35.91,4.85-.48-.1-2.52-.53-4.03-2.39-.09-.09-.16-.18-.23-.28-1.68-2.28-1.3-4.77-1.22-5.21Z"/>
        <line class="cls-4" x1="24" y1="37.79" x2="29.19" y2="32.6"/>
        <line class="cls-9" x1="29.19" y1="39.82" x2="29.19" y2="32.9"/>
        <line class="cls-9" x1="22.21" y1="32.6" x2="29.13" y2="32.6"/>
        <path class="cls-9" d="M23.05,37.5c.69-.01,1.24.55,1.24,1.23.01.69-.55,1.24-1.23,1.25-.69,0-1.24-.56-1.24-1.24,0-.68.55-1.24,1.23-1.24Z"/>
        <path class="cls-9" d="M16.66,31.36c.68,0,1.24.56,1.24,1.24s-.55,1.24-1.24,1.24c-.68.01-1.24-.55-1.24-1.23s.55-1.24,1.24-1.25Z"/>
        <path class="cls-9" d="M12.39,31.36c.68,0,1.24.56,1.24,1.24s-.55,1.24-1.24,1.24c-.68.01-1.24-.55-1.24-1.23s.55-1.24,1.24-1.25Z"/>
        <path class="cls-9" d="M29.6,48.46c.44.19.76.63.76,1.14,0,.33-.13.63-.33.85-.23.24-.56.39-.91.39-.69,0-1.24-.55-1.24-1.24s.55-1.24,1.24-1.24c.17,0,.33.04.48.1Z"/>
        <circle class="cls-9" cx="29.13" cy="45.33" r="1.24"/>
        <circle class="cls-9" cx="29.14" cy="41.06" r="1.24"/>
        <path class="cls-9" d="M18.02,39.29c-.04.06-.09.12-.14.17-.48.48-1.27.48-1.75,0-.45-.45-.48-1.19-.07-1.67.02-.03.04-.05.07-.08.48-.49,1.27-.49,1.75,0,.44.43.48,1.1.14,1.58Z"/>
        <line class="cls-9" x1="7.61" y1="23.55" x2="15.76" y2="31.7"/>
        <line class="cls-9" x1="7.4" y1="27.61" x2="11.49" y2="31.7"/>
        <line class="cls-9" x1="16.05" y1="45.74" x2="19.1" y2="42.69"/>
        <line class="cls-9" x1="4.82" y1="27.59" x2="7.4" y2="27.59"/>
        <path class="cls-9" d="M24.36,45.02c-.05.21-.16.42-.33.58-.48.49-1.27.49-1.75,0-.48-.48-.48-1.27,0-1.75.06-.06.13-.12.2-.17.48-.3,1.13-.25,1.55.17.32.32.43.77.33,1.17Z"/>
        <line class="cls-9" x1="14.86" y1="40.73" x2="16.13" y2="39.46"/>
        <line class="cls-9" x1="19.02" y1="48.86" x2="22.28" y2="45.6"/>
        <path class="cls-9" d="M8.12,31.36c.68,0,1.24.56,1.24,1.24s-.55,1.24-1.24,1.24c-.68.01-1.24-.55-1.24-1.23s.55-1.24,1.24-1.25Z"/>
        <line class="cls-9" x1="31.98" y1="52.39" x2="30.08" y2="50.49"/>
        <polyline class="cls-9" points="32.91 49.06 32.72 48.87 30.08 46.23"/>
        <line class="cls-9" x1="5.9" y1="32.52" x2="6.88" y2="32.52"/>
        <line class="cls-9" x1="19" y1="48.96" x2="19" y2="52.89"/>
        <path class="cls-2" d="M29.14,32.06c1.04.95,2.19,1.91,3.58,2.89,2.15,1.51,5.05,3.18,8.92,4.51"/>
        <path class="cls-2" d="M4.2,24.15c4.08-1.15,9.54-1.89,14.93.21,4.54,1.76,6.59,4.58,10.01,7.7"/>
        <path class="cls-2" d="M17.63,52.45c.43.2.87.4,1.31.58,3.24,1.35,6.79,2.1,10.52,2.1.59,0,1.17-.02,1.75-.05"/>
        <path class="cls-2" d="M53.23,14.36c-2.78-4.89-7.02-8.85-12.14-11.26-3.53-1.67-7.47-2.6-11.63-2.6C18.64.5,9.3,6.79,4.88,15.91h-.01c-.52,1.07-.97,2.17-1.35,3.31-.25.77-.48,1.55-.66,2.35-.01.01-.01.02-.01.03"/>
        <polyline class="cls-6" points="35.08 41.31 34.53 43.27 34.27 44.19 32.94 48.95 32.91 49.06 31.98 52.39 31.23 55.09 30.56 57.48"/>
        <polyline class="cls-6" points="44.79 24.46 44.41 26.28 43.73 29.55 41.67 39.47 41.44 40.57"/>
        <path class="cls-6" d="M58.4,9.84c.05.13.07.26.08.39"/>
        <polyline class="cls-6" points="53.75 12.26 53.5 13.7 53.38 14.39 52.29 20.62 51.87 23"/>
        <path class="cls-6" d="M41.11,3.06c10.24.96,17.4,3.15,17.4,5.71,0,.09-.01.18-.03.28-.23,1.15-1.93,2.22-4.69,3.13"/>
        <polyline class="cls-6" points="58.48 51.26 58.48 38.12 58.48 37.25 58.48 35.18 58.48 21.05 58.48 19.12 58.48 10.47 58.48 10.23 58.48 9.05 58.48 8.65"/>
        <polyline class="cls-6" points=".51 51.32 .51 37.71 .51 35.41 .51 19.19"/>
        <line class="cls-6" x1="17.63" y1="52.45" x2="18.71" y2="57.05"/>
        <line class="cls-2" x1="17.62" y1="52.44" x2="17.63" y2="52.45"/>
        <polyline class="cls-6" points="14.82 40.54 14.82 40.56 14.86 40.73 15.28 42.51 16.05 45.74 17.62 52.44"/>
        <path class="cls-6" d="M3.6,21.99c.1.45.2.89.29,1.34.07.28.13.57.19.85.25,1.14.5,2.27.74,3.41.36,1.64.72,3.29,1.08,4.93.28,1.29.57,2.58.85,3.87.2.9.39,1.8.59,2.7"/>
        <path class="cls-6" d="M3.55,21.89c-.24-.11-.47-.21-.69-.32-1.07-.54-1.8-1.11-2.13-1.71-.13-.22-.19-.44-.21-.67v-.08c0-1.19,1.56-2.31,4.26-3.25"/>
        <path class="cls-2" d="M58.44,19.12c0,.44-.21.87-.62,1.28-.2.22-.47.43-.78.64l-.06.03c-.26.17-.54.34-.86.49-.33.17-.7.33-1.09.49-.26.11-.53.21-.82.31-.05.02-.09.03-.15.05-.66.23-1.38.44-2.17.65h0c-2,.53-4.39.98-7.08,1.34"/>
        <path class="cls-2" d="M58.48,51.26c0,.41-.18.8-.53,1.19-.18.2-.4.4-.67.58-.38.29-.85.56-1.4.81-.09.05-.19.09-.29.14-.32.14-.66.27-1.03.41-.07.03-.14.05-.22.08-1.53.55-3.45,1.05-5.67,1.46-.56.11-1.14.21-1.74.31-.29.05-.58.1-.88.14-.01,0-.03,0-.04.01-.84.12-1.72.24-2.63.34-.64.08-1.3.15-1.97.22-.91.09-1.85.16-2.81.23-.04.01-.09.01-.14.01-2.5.18-5.15.28-7.9.3"/>
        <path class="cls-2" d="M18.71,57.05c-2.91-.25-5.59-.6-7.94-1.03-.15-.03-.31-.05-.45-.08-.81-.15-1.57-.31-2.29-.49h-.04c-1.71-.41-3.18-.87-4.35-1.36-.18-.08-.36-.15-.52-.23-.7-.33-1.27-.68-1.7-1.03-.14-.11-.26-.23-.37-.35-.34-.37-.53-.76-.54-1.16-.01-.02-.01-.04-.01-.06"/>
        <path class="cls-2" d="M14.82,40.56c-2.85-.36-5.39-.82-7.51-1.36-2.74-.7-4.78-1.53-5.88-2.44-.12-.1-.23-.2-.33-.31-.33-.33-.53-.68-.59-1.04"/>
        <path class="cls-2" d="M58.47,35.18c0,.42-.19.83-.57,1.23-.14.15-.31.31-.5.45-.41.32-.94.63-1.57.92-.29.14-.6.27-.94.4-1.1.43-2.42.83-3.94,1.19-.27.07-.54.13-.82.19l-.21.04c-.42.09-.85.18-1.3.26-.63.12-1.28.24-1.95.34-1.61.26-3.35.48-5.2.66-2.01.2-4.16.35-6.39.44"/>
        <path class="cls-9" d="M21.05,42.45c-.05.06-.1.12-.15.17-.48.49-1.27.49-1.75,0-.48-.48-.48-1.27,0-1.75.07-.07.14-.13.21-.17.48-.31,1.13-.25,1.54.17.43.42.48,1.09.15,1.57h0Z"/>
      </g>
    </g>
  </g>
</svg>